# xmcd
#
# Track frame offsets:
#	183
#	15268
#	25013
#	46738
#	68760
#	88205
#	106420
#	120490
#	133480
#	167250
#	190280
#	206515
#	219420
#	252130
#	265985
#	278133
#
# Disc length: 4085
#
# Revision: 1
# Processed by: cddbd v1.5.1PL0 Copyright (c) Steve Scherf et al.
# Submitted via: CDex 1.40Beta8
# Normalized: r0:DSETVAR1,TDELIM( - )
#
DISCID=d90ff310
DTITLE=Various Artist - Crossroads
DYEAR=1991
DGENRE=Blues
TTITLE0=Keith Richards - Key To The Highway
TTITLE1=Buddy Guy - The First Time I Met The Blues
TTITLE2=Jimi Hendrix - Drivin South
TTITLE3=John Campbell - Down In The Hole
TTITLE4=John Lee Hocker - Boom Boom
TTITLE5=Lynyrd Skynyrd - Crossroads
TTITLE6=David Pecan Porter - All My Money
TTITLE7=Doctor John - Right Place Wrong Time
TTITLE8=Calvin Russel - Crossroads
TTITLE9=Lightnin Hopkins - Take A Trip With Me
TTITLE10=Larry MC Gray - Witchin Moon
TTITLE11=BB King - The Woman I Love
TTITLE12=Robert Cray - I Was Warned
TTITLE13=Albert Collins - Travelin South
TTITLE14=Robert Johnson - Crossroad Blues
TTITLE15=Tommy Smiley s TJ s - Blues-O-Rama
EXTD=YEAR: 1991 ID3G: 0
EXTT0=
EXTT1=
EXTT2=
EXTT3=
EXTT4=
EXTT5=
EXTT6=
EXTT7=
EXTT8=
EXTT9=
EXTT10=
EXTT11=
EXTT12=
EXTT13=
EXTT14=
EXTT15=
PLAYORDER=
